<?xml version="1.0" encoding="utf-8"?>
<!-- Generator: Adobe Illustrator 22.0.1, SVG Export Plug-In . SVG Version: 6.00 Build 0)  -->
<svg version="1.1" id="Слой_1" xmlns="http://www.w3.org/2000/svg" xmlns:xlink="http://www.w3.org/1999/xlink" x="0px" y="0px"
	 viewBox="0 0 70 100" style="enable-background:new 0 0 70 100;" xml:space="preserve">
<style type="text/css">
	.st0{fill:#19B7AF;}
</style>
<path class="st0" d="M34.5,0.7C16.8,0.7,0,13.6,0,32.9c0,22.5,24.4,54,32.3,65.9c1,1.6,3.4,1.6,4.4,0C44.6,86.9,69,55.4,69,32.9
	C69,13.6,52.2,0.7,34.5,0.7z M34.5,90.9c-1.6,0-27.9-41.2-27.9-56.4S19.1,7.1,34.5,7.1s27.9,12.3,27.9,27.4S36.1,90.9,34.5,90.9z"/>
<path class="st0" d="M23.5,13.8c-4.9,0-9.5,3.6-9.5,9c0,6.3,6.7,15.2,8.9,18.5c0.3,0.4,0.9,0.4,1.2,0C26.3,38,33,29.2,33,22.8
	C33,17.4,28.4,13.8,23.5,13.8z M23.5,31c-4.2,0-7.7-3.4-7.7-7.7s3.4-7.7,7.7-7.7s7.7,3.4,7.7,7.7S27.7,31,23.5,31z"/>
<path class="st0" d="M34,15.8c-5.6,0-11,4.2-11,10.5c0,7.3,7.8,17.6,10.3,21.4c0.3,0.5,1.1,0.5,1.4,0C37.2,43.8,45,33.6,45,26.2
	C45,20,39.6,15.8,34,15.8z M34,35.7c-4.9,0-8.9-4-8.9-8.9s4-8.9,8.9-8.9s8.9,4,8.9,8.9S38.9,35.7,34,35.7z"/>
<path class="st0" d="M45.5,13.8c-4.9,0-9.5,3.6-9.5,9c0,6.3,6.7,15.2,8.9,18.5c0.3,0.4,0.9,0.4,1.2,0C48.3,38,55,29.2,55,22.8
	C55,17.4,50.4,13.8,45.5,13.8z M45.5,31c-4.2,0-7.7-3.4-7.7-7.7s3.4-7.7,7.7-7.7s7.7,3.4,7.7,7.7S49.7,31,45.5,31z"/>
</svg>
