<?xml version="1.0" encoding="utf-8"?>
<!-- Generator: Adobe Illustrator 22.0.1, SVG Export Plug-In . SVG Version: 6.00 Build 0)  -->
<svg version="1.1" id="Слой_1" xmlns="http://www.w3.org/2000/svg" xmlns:xlink="http://www.w3.org/1999/xlink" x="0px" y="0px"
	 viewBox="0 0 50 70" style="enable-background:new 0 0 50 70;" xml:space="preserve">
<style type="text/css">
	.st0{fill:#19B7AF;}
</style>
<path class="st0" d="M46,24.9C46,10.6,31.8-0.3,16.7,5.6C11.9,7.5,8,11.2,6,16c-2.5,6-2.3,11.8-0.4,16.7c0,0,0,0,0,0c0,0,0,0,0,0
	c0.2,0.6,0.5,1.2,0.8,1.7C11,44,23.7,66.3,25.1,66.3c1.1,0,16.6-26,19.4-33.6c0,0,0,0,0,0C45.5,30.3,46,27.7,46,24.9z"/>
</svg>
